<svg xmlns="http://www.w3.org/2000/svg" aria-hidden="true" style="position:absolute;width:0;height:0;overflow:hidden">
  <defs>
    <symbol id="brightness-contrast" viewBox="0 0 15 15">
      <path d="M7.5 3.75a3.75 3.75 0 1 0 0 7.5 3.75 3.75 0 0 0 0-7.5zm0 6.094V5.156c1.292 0 2.344 1.051 2.344 2.344S8.793 9.844 7.5 9.844zm0 2.344c.518 0 .938.42.938.938v.938a.938.938 0 0 1-1.876 0v-.938c0-.518.42-.938.938-.938zm0-9.375a.938.938 0 0 1-.938-.938V.937a.938.938 0 0 1 1.876 0v.938c0 .518-.42.938-.938.938zm6.563 3.75a.938.938 0 0 1 0 1.876h-.938a.938.938 0 0 1 0-1.876h.938zM2.813 7.5c0 .518-.42.938-.938.938H.937a.938.938 0 0 1 0-1.876h.938c.518 0 .938.42.938.938zm9.327 3.315.663.663a.938.938 0 0 1-1.326 1.326l-.663-.663a.938.938 0 0 1 1.326-1.326zm-9.28-6.63-.663-.663a.938.938 0 0 1 1.326-1.326l.663.663A.938.938 0 0 1 2.86 4.185zm9.28 0a.938.938 0 0 1-1.326-1.326l.663-.663a.938.938 0 0 1 1.326 1.326l-.663.663zm-9.28 6.63a.938.938 0 0 1 1.326 1.326l-.663.663a.938.938 0 0 1-1.326-1.326l.663-.663z"/>
    </symbol>
    <symbol id="sun" viewBox="0 0 15 15">
      <path d="M7.5 12.188c.518 0 .938.42.938.938v.938a.938.938 0 0 1-1.876 0v-.938c0-.518.42-.938.938-.938zm0-9.375a.938.938 0 0 1-.938-.938V.937a.938.938 0 0 1 1.876 0v.938c0 .518-.42.938-.938.938zm6.563 3.75a.938.938 0 0 1 0 1.876h-.938a.938.938 0 0 1 0-1.876h.938zM2.813 7.5c0 .518-.42.938-.938.938H.937a.938.938 0 0 1 0-1.876h.938c.518 0 .938.42.938.938zm9.327 3.315.663.663a.938.938 0 0 1-1.326 1.326l-.663-.663a.938.938 0 0 1 1.326-1.326zm-9.28-6.63-.663-.663a.938.938 0 0 1 1.326-1.326l.663.663A.938.938 0 0 1 2.86 4.185zm9.28 0a.938.938 0 0 1-1.326-1.326l.663-.663a.938.938 0 0 1 1.326 1.326l-.663.663zm-9.28 6.63a.938.938 0 0 1 1.326 1.326l-.663.663a.938.938 0 0 1-1.326-1.326l.663-.663zM7.5 3.75a3.75 3.75 0 1 0 0 7.5 3.75 3.75 0 0 0 0-7.5zm0 6.094a2.344 2.344 0 1 1 0-4.688 2.344 2.344 0 0 1 0 4.688z"/>
    </symbol>
    <symbol id="search" viewBox="0 0 15 15">
      <path d="m14.535 12.765-3.553-3.022c-.367-.331-.76-.482-1.077-.468A5.624 5.624 0 1 0 0 5.625a5.624 5.624 0 0 0 9.275 4.28c-.015.317.137.71.468 1.077l3.022 3.553c.517.575 1.363.623 1.878.108s.467-1.361-.108-1.878zm-8.91-3.39a3.75 3.75 0 1 1 0-7.5 3.75 3.75 0 0 1 0 7.5z"/>
    </symbol>
  </defs>
</svg>
